<?xml version="1.0" encoding="UTF-8" standalone="no"?>
<!-- Svg Vector Icons : http://www.onlinewebfonts.com/icon -->

<svg
   xmlns:dc="http://purl.org/dc/elements/1.1/"
   xmlns:cc="http://creativecommons.org/ns#"
   xmlns:rdf="http://www.w3.org/1999/02/22-rdf-syntax-ns#"
   xmlns:svg="http://www.w3.org/2000/svg"
   xmlns="http://www.w3.org/2000/svg"
   xmlns:sodipodi="http://sodipodi.sourceforge.net/DTD/sodipodi-0.dtd"
   xmlns:inkscape="http://www.inkscape.org/namespaces/inkscape"
   version="1.1"
   x="0px"
   y="0px"
   viewBox="0 0 1000 1000"
   enable-background="new 0 0 1000 1000"
   xml:space="preserve"
   id="svg2"
   inkscape:version="0.91 r13725"
   sodipodi:docname="map_route.svg"
   inkscape:export-filename="/home/billerot/git/teou/atelier/map_route.png"
   inkscape:export-xdpi="17.280001"
   inkscape:export-ydpi="17.280001"><defs
     id="defs28" /><sodipodi:namedview
     pagecolor="#ffffff"
     bordercolor="#666666"
     borderopacity="1"
     objecttolerance="10"
     gridtolerance="10"
     guidetolerance="10"
     inkscape:pageopacity="0"
     inkscape:pageshadow="2"
     inkscape:window-width="1855"
     inkscape:window-height="1176"
     id="namedview26"
     showgrid="false"
     inkscape:zoom="1.007"
     inkscape:cx="500"
     inkscape:cy="500"
     inkscape:window-x="65"
     inkscape:window-y="24"
     inkscape:window-maximized="1"
     inkscape:current-layer="g8" /><metadata
     id="metadata4"> Svg Vector Icons : http://www.onlinewebfonts.com/icon <rdf:RDF><cc:Work
     rdf:about=""><dc:format>image/svg+xml</dc:format><dc:type
       rdf:resource="http://purl.org/dc/dcmitype/StillImage" /><dc:title /></cc:Work></rdf:RDF></metadata><g
     id="g8"
     transform="matrix(0.1,0,0,-0.1,0,512)"><path
       inkscape:connector-curvature="0"
       id="path10"
       d="M 1872.1095,4085.847 C 1337.3963,3972.9821 945.23722,3469.4308 985.31354,2946.5778 1010.5841,2615.3472 1306.1569,2003.3495 1815.677,1223.5273 c 101.0048,-155.9645 173.7934,-252.47329 197.5137,-262.93809 47.5179,-22.2474 118.8337,-22.2474 158.9101,-1.4728 53.4868,28.2162 412.9337,594.16869 637.1907,1004.07919 245.1092,444.0956 369.8341,769.435 381.7718,993.6921 26.7434,505.024 -291.1543,947.6467 -791.6824,1105.084 -132.1666,40.2314 -389.1359,52.0915 -527.2714,23.8753 z m 421.8482,-660.9885 c 164.8789,-81.7031 265.8837,-240.6132 267.3565,-424.7938 1.4728,-262.9381 -210.9241,-475.3351 -475.335,-473.8622 -255.4964,1.4729 -450.0644,190.1495 -463.3973,447.1188 -8.9145,154.4915 25.2705,240.6131 138.1354,353.478 114.3378,114.3378 182.708,141.0812 341.618,136.6627 90.6175,-2.9456 136.6627,-11.8601 191.6224,-38.6035 z"
       style="fill:#d40000" /><path
       inkscape:connector-curvature="0"
       id="path12"
       d="m 2645.9629,1233.9146 c -98.0592,-54.9597 -101.0048,-222.7843 -4.496,-274.79819 13.4105,-7.4417 149.9956,-20.7746 304.4873,-31.1619 313.4017,-20.7746 334.1763,-16.3561 375.8029,81.70299 28.2163,68.2926 1.4729,151.546 -60.9284,187.1264 -84.5711,49.0684 -543.55,77.2845 -614.8658,37.1307 z"
       style="fill:#999999" /><path
       inkscape:connector-curvature="0"
       id="path14"
       d="m 3733.2956,1036.401 c -56.4325,-10.3873 -108.4465,-87.67189 -108.4465,-158.91009 0,-69.843 26.7434,-102.4777 148.5228,-179.7622 114.3378,-71.3158 204.9553,-154.49168 282.2398,-258.44213 99.532,-135.18986 160.383,-160.46045 254.0237,-111.39211 54.9596,26.74341 92.0903,108.44646 78.7573,166.35175 -22.2473,89.14469 -187.1263,285.18549 -337.1994,396.57759 -164.9564,124.80259 -243.6363,160.46039 -317.8977,145.57719 z"
       style="fill:#999999" /><path
       inkscape:connector-curvature="0"
       id="path16"
       d="m 7026.3004,933.92331 c -338.6723,-43.0995 -631.2994,-179.7622 -860.0525,-404.01922 -328.285,-323.78902 -485.7222,-781.29504 -411.4608,-1204.61606 80.2302,-458.97893 485.7222,-1360.58053 1121.4402,-2487.98953 160.3829,-286.6584 202.0096,-335.7267 280.6895,-335.7267 98.0591,0 148.5228,71.3158 497.5824,713.0025 444.0955,819.8986 769.4349,1547.7844 882.2999,1980.0198 53.4868,203.48246 56.4324,457.50608 7.4416,655.01976 -153.0188,613.47048 -690.6775,1054.62045 -1320.5042,1084.30945 -80.0752,2.9457 -169.1424,2.9457 -197.4361,0 z m 393.632,-675.87176 c 231.6986,-86.12152 404.0192,-256.9692606 485.7222,-484.24943 22.2475,-57.90529 34.1851,-133.63954 38.6035,-234.72183 5.9689,-130.69391 1.4729,-161.9333 -32.7122,-264.41093 -44.5723,-130.69392 -89.1447,-206.42809 -176.739,-304.48726 -301.5416,-328.2851 -839.2003,-328.2851 -1148.1836,-1.4728 -231.6986,245.10912 -283.7126,632.77221 -121.7794,919.43055 114.3377,204.955259 286.6583,335.64913 516.8841,395.10476 115.8882,29.76658 323.8666,17.90646 438.2044,-25.19306 z"
       style="fill:#008000" /><path
       inkscape:connector-curvature="0"
       id="path18"
       d="m 4358.6262,-13.800991 c -57.9053,-57.9053 -60.9285,-87.594349 -28.2162,-243.558809 11.8601,-56.43246 31.1619,-202.00961 46.0451,-323.86651 13.333,-129.22109 32.6348,-236.19467 46.0452,-255.49646 11.8601,-19.30179 44.5723,-44.57234 74.2614,-56.43247 103.9505,-44.57234 212.3969,31.2394 212.3969,148.52281 0,84.64874 -40.0764,405.49205 -69.8429,558.51086 -20.7746,105.423299 -32.6347,135.189869 -72.7886,175.266219 -66.8197,66.89728 -138.058,66.89728 -207.9009,-2.94564 z"
       style="fill:#999999" /><path
       inkscape:connector-curvature="0"
       id="path20"
       d="m 4490.7929,-1277.7952 -53.4868,-53.4868 10.3873,-144.0268 c 14.8833,-212.3969 66.8197,-552.5421 92.0903,-606.0289 57.9053,-121.7794 239.1404,-109.9192 289.6815,22.325 8.9144,22.3249 5.8913,74.2613 -8.9144,151.4684 -11.8602,65.3469 -32.6348,216.8929 -44.5724,337.1995 -25.2706,248.0547 -38.6036,292.6271 -98.0591,322.3162 -71.2383,37.0532 -129.1436,28.1387 -187.1264,-29.7666 z"
       style="fill:#999999" /><path
       inkscape:connector-curvature="0"
       id="path22"
       d="m 4817.605,-2467.6055 c -57.9053,-28.2162 -97.9816,-106.9736 -84.6486,-164.8789 43.0995,-175.2663 444.0955,-583.7814 574.8669,-583.7814 52.014,0 123.3298,35.6578 144.1043,72.7885 16.3562,32.6347 19.3018,120.3066 5.9689,157.4373 -5.9689,13.3329 -57.9053,59.3781 -115.8881,102.4776 -115.8881,86.1216 -212.3969,190.1495 -295.5728,322.3162 -37.1307,57.9053 -68.2926,89.1447 -101.0048,101.0048 -61.006,20.8521 -69.9205,20.8521 -127.8258,-7.3641 z"
       style="fill:#999999" /><path
       inkscape:connector-curvature="0"
       id="path24"
       d="m 5803.8554,-3156.8102 c -56.4325,-44.5724 -77.207,-118.8338 -48.9908,-182.7079 11.8601,-29.6891 37.1307,-62.4013 56.4324,-74.2614 48.9908,-32.7122 305.9601,-69.8429 554.0149,-80.2302 l 213.8697,-8.9145 52.014,52.014 c 59.4557,59.3781 68.2926,117.3609 31.162,188.6767 -29.6891,57.9053 -78.7574,72.7885 -274.7983,83.1758 -93.5631,5.9689 -237.6675,19.3018 -317.8977,31.1619 -193.0176,26.7434 -219.7611,26.7434 -265.8062,-8.9144 z"
       style="fill:#999999" /></g></svg>