<?xml version="1.0" encoding="UTF-8" standalone="no"?>
<!-- Created with Inkscape (http://www.inkscape.org/) -->

<svg
   xmlns:dc="http://purl.org/dc/elements/1.1/"
   xmlns:cc="http://creativecommons.org/ns#"
   xmlns:rdf="http://www.w3.org/1999/02/22-rdf-syntax-ns#"
   xmlns:svg="http://www.w3.org/2000/svg"
   xmlns="http://www.w3.org/2000/svg"
   xmlns:xlink="http://www.w3.org/1999/xlink"
   xmlns:sodipodi="http://sodipodi.sourceforge.net/DTD/sodipodi-0.dtd"
   xmlns:inkscape="http://www.inkscape.org/namespaces/inkscape"
   version="1.2"
   width="500"
   height="500"
   id="svg2455"
   inkscape:version="0.91 r13725"
   sodipodi:docname="mono.svg"
   inkscape:export-filename="/home/billerot/git/teou/atelier/mono_xxxhdpi_192.png"
   inkscape:export-xdpi="34.560001"
   inkscape:export-ydpi="34.560001">
  <sodipodi:namedview
     pagecolor="#ffffff"
     bordercolor="#666666"
     borderopacity="1"
     objecttolerance="10"
     gridtolerance="10"
     guidetolerance="10"
     inkscape:pageopacity="1"
     inkscape:pageshadow="2"
     inkscape:window-width="1855"
     inkscape:window-height="1176"
     id="namedview4422"
     showgrid="false"
     inkscape:zoom="2.014"
     inkscape:cx="250"
     inkscape:cy="250"
     inkscape:window-x="65"
     inkscape:window-y="24"
     inkscape:window-maximized="1"
     inkscape:current-layer="svg2455" />
  <defs
     id="defs3">
    <marker
       inkscape:stockid="DotS"
       orient="auto"
       refY="0"
       refX="0"
       id="DotS"
       style="overflow:visible">
      <path
         id="path4217"
         d="m -2.5,-1 c 0,2.76 -2.24,5 -5,5 -2.76,0 -5,-2.24 -5,-5 0,-2.76 2.24,-5 5,-5 2.76,0 5,2.24 5,5 z"
         style="fill-rule:evenodd;stroke:#000000;stroke-width:1pt"
         transform="matrix(0.2,0,0,0.2,1.48,0.2)"
         inkscape:connector-curvature="0" />
    </marker>
    <inkscape:perspective
       sodipodi:type="inkscape:persp3d"
       inkscape:vp_x="0 : 24 : 1"
       inkscape:vp_y="0 : 1000 : 0"
       inkscape:vp_z="48 : 24 : 1"
       inkscape:persp3d-origin="24 : 16 : 1"
       id="perspective4424" />
    <linearGradient
       id="linearGradient2419">
      <stop
         id="stop2420"
         style="stop-color:#000000;stop-opacity:0.50515461"
         offset="0" />
      <stop
         id="stop2421"
         style="stop-color:#000000;stop-opacity:0"
         offset="1" />
    </linearGradient>
    <linearGradient
       x1="156.33752"
       y1="184.92068"
       x2="264.56921"
       y2="184.92068"
       id="linearGradient2422"
       xlink:href="#linearGradient2419"
       gradientUnits="userSpaceOnUse"
       gradientTransform="scale(1.19593,0.836169)" />
    <linearGradient
       id="linearGradient2411">
      <stop
         id="stop2412"
         style="stop-color:#ffffff;stop-opacity:1"
         offset="0" />
      <stop
         id="stop2413"
         style="stop-color:#ffffff;stop-opacity:0"
         offset="1" />
    </linearGradient>
    <radialGradient
       cx="212.59842"
       cy="70.866119"
       r="35.433071"
       fx="212.59842"
       fy="70.866119"
       id="radialGradient2415"
       xlink:href="#linearGradient2411"
       gradientUnits="userSpaceOnUse" />
    <linearGradient
       x1="414.13153"
       y1="240.14357"
       x2="302.99097"
       y2="240.80186"
       id="linearGradient1779"
       xlink:href="#linearGradient1767"
       gradientUnits="userSpaceOnUse"
       gradientTransform="scale(0.689104,1.45116)" />
    <linearGradient
       id="linearGradient1767">
      <stop
         id="stop1768"
         style="stop-color:#3f3318;stop-opacity:1"
         offset="0" />
      <stop
         id="stop1769"
         style="stop-color:#815f0e;stop-opacity:1"
         offset="1" />
    </linearGradient>
    <linearGradient
       x1="299.37338"
       y1="252.27031"
       x2="411.72696"
       y2="252.27031"
       id="linearGradient1778"
       xlink:href="#linearGradient1767"
       gradientUnits="userSpaceOnUse"
       gradientTransform="matrix(0.697599,0,0,1.47183,0,-11.82638)" />
    <linearGradient
       id="linearGradient1754">
      <stop
         id="stop1755"
         style="stop-color:#747474;stop-opacity:1"
         offset="0" />
      <stop
         id="stop1757"
         style="stop-color:#bebebe;stop-opacity:1"
         offset="0.5" />
      <stop
         id="stop1759"
         style="stop-color:#d5d5d5;stop-opacity:1"
         offset="0.625" />
      <stop
         id="stop1758"
         style="stop-color:#818181;stop-opacity:1"
         offset="0.75" />
      <stop
         id="stop1756"
         style="stop-color:#c3c3c3;stop-opacity:1"
         offset="1" />
    </linearGradient>
    <linearGradient
       x1="150.49463"
       y1="42.808048"
       x2="345.53265"
       y2="242.17987"
       id="linearGradient1777"
       xlink:href="#linearGradient1754"
       gradientUnits="userSpaceOnUse"
       gradientTransform="scale(1.000071,0.999929)" />
    <pattern
       patternUnits="userSpaceOnUse"
       width="28.945312"
       height="33.076172"
       patternTransform="translate(190.4901,70.84341)"
       id="pattern2568">
      <text
         xml:space="preserve"
         style="font-size:12.000000;font-style:normal;font-weight:normal;fill:#000000;fill-opacity:1.0000000;stroke:none;stroke-width:1.0000000pt;stroke-linecap:butt;stroke-linejoin:miter;stroke-opacity:1.0000000;font-family:Bitstream Vera Sans"
         x="189.69904"
         y="67.749657"
         id="text2569"
         transform="translate(-190.4901,-70.84341)"><tspan
           id="tspan2570"
           x="189.69904"
           y="67.749657" /><tspan
           id="tspan2576"
           x="189.69904"
           y="79.749657">0010</tspan><tspan
           id="tspan2578"
           x="189.69904"
           y="91.749657">0100</tspan><tspan
           id="tspan2580"
           x="189.69904"
           y="103.74966">0111</tspan><tspan
           id="tspan2582"
           x="189.69904"
           y="115.74966" /></text>
    </pattern>
    <pattern
       patternUnits="userSpaceOnUse"
       width="32.232422"
       height="37.876175"
       patternTransform="translate(183.7668,59.46841)"
       id="pattern2606">
      <text
         xml:space="preserve"
         style="font-size:12.000000;font-style:normal;font-weight:bold;fill:#000000;fill-opacity:1.0000000;stroke:none;stroke-width:1.0000000pt;stroke-linecap:butt;stroke-linejoin:miter;stroke-opacity:1.0000000;font-family:Bitstream Vera Sans;font-stretch:normal;font-variant:normal;text-anchor:middle;writing-mode:lr;"
         x="189.69904"
         y="67.749657"
         id="text2607"
         transform="translate(-173.5858,-58.84341)"><tspan
           x="189.69904"
           y="67.749657"
           id="tspan2608">0010</tspan><tspan
           x="189.69904"
           y="82.149657"
           id="tspan2610">0100</tspan><tspan
           x="189.69904"
           y="96.549658"
           id="tspan2612">0111</tspan></text>
    </pattern>
    <pattern
       patternUnits="userSpaceOnUse"
       width="32.232422"
       height="28.276169"
       patternTransform="translate(183.7668,59.46841)"
       id="pattern2623">
      <text
         xml:space="preserve"
         style="font-size:12.000000;font-style:normal;font-variant:normal;font-weight:bold;font-stretch:normal;fill:#000000;fill-opacity:1.0000000;stroke:none;stroke-width:1.0000000pt;stroke-linecap:butt;stroke-linejoin:miter;stroke-opacity:1.0000000;font-family:Bitstream Vera Sans;text-anchor:middle;writing-mode:lr;"
         x="189.69904"
         y="67.749657"
         id="text2624"
         transform="translate(-173.5858,-58.84341)"><tspan
           x="189.69904"
           y="67.749657"
           id="tspan2625">0010</tspan><tspan
           x="189.69904"
           y="77.349657"
           id="tspan2627">0100</tspan><tspan
           x="189.69904"
           y="86.949657"
           id="tspan2629">0111</tspan></text>
    </pattern>
    <pattern
       patternUnits="userSpaceOnUse"
       width="32.232422"
       height="25.876175"
       patternTransform="translate(183.7668,59.46841)"
       id="pattern2639">
      <text
         xml:space="preserve"
         style="font-size:12.000000;font-style:normal;font-variant:normal;font-weight:bold;font-stretch:normal;fill:#000000;fill-opacity:1.0000000;stroke:none;stroke-width:1.0000000pt;stroke-linecap:butt;stroke-linejoin:miter;stroke-opacity:1.0000000;font-family:Bitstream Vera Sans;text-anchor:middle;writing-mode:lr;"
         x="189.69904"
         y="67.749657"
         id="text2640"
         transform="translate(-173.5858,-58.84341)"><tspan
           x="189.69904"
           y="67.749657"
           id="tspan2641">0010</tspan><tspan
           x="189.69904"
           y="76.149656"
           id="tspan2643">0100</tspan><tspan
           x="189.69904"
           y="84.549656"
           id="tspan2645">0111</tspan></text>
    </pattern>
    <pattern
       patternUnits="userSpaceOnUse"
       width="96.697266"
       height="77.628510"
       patternTransform="translate(151.5402,41.65591)"
       id="pattern2692">
      <text
         xml:space="preserve"
         style="font-size:36.000000;font-style:normal;font-variant:normal;font-weight:bold;font-stretch:normal;fill:#000000;fill-opacity:1.0000000;stroke:none;stroke-width:1.0000000pt;stroke-linecap:butt;stroke-linejoin:miter;stroke-opacity:1.0000000;font-family:Bitstream Vera Sans;text-anchor:middle;writing-mode:lr;"
         x="189.69904"
         y="67.749657"
         id="text2693"
         transform="translate(-141.3592,-41.03091)"><tspan
           x="189.69904"
           y="67.749657"
           id="tspan2694">0010</tspan><tspan
           x="189.69904"
           y="92.949656"
           id="tspan2696">0100</tspan><tspan
           x="189.69904"
           y="118.14965"
           id="tspan2698">0111</tspan></text>
    </pattern>
    <linearGradient
       x1="150.49463"
       y1="42.808048"
       x2="345.53265"
       y2="242.17987"
       id="linearGradient3789"
       xlink:href="#linearGradient1754"
       gradientUnits="userSpaceOnUse"
       gradientTransform="scale(1.000071,0.999929)" />
    <linearGradient
       x1="299.37338"
       y1="252.27031"
       x2="411.72696"
       y2="252.27031"
       id="linearGradient3791"
       xlink:href="#linearGradient1767"
       gradientUnits="userSpaceOnUse"
       gradientTransform="matrix(0.697599,0,0,1.47183,0,-11.82638)" />
    <linearGradient
       x1="414.13153"
       y1="240.14357"
       x2="302.99097"
       y2="240.80186"
       id="linearGradient3793"
       xlink:href="#linearGradient1767"
       gradientUnits="userSpaceOnUse"
       gradientTransform="scale(0.689104,1.45116)" />
    <radialGradient
       cx="212.59842"
       cy="70.866119"
       r="35.433071"
       fx="212.59842"
       fy="70.866119"
       id="radialGradient3795"
       xlink:href="#linearGradient2411"
       gradientUnits="userSpaceOnUse" />
    <linearGradient
       x1="156.33752"
       y1="184.92068"
       x2="264.56921"
       y2="184.92068"
       id="linearGradient3797"
       xlink:href="#linearGradient2419"
       gradientUnits="userSpaceOnUse"
       gradientTransform="scale(1.19593,0.836169)" />
  </defs>
  <metadata
     id="metadata4">
    <rdf:RDF>
      <cc:Work
         rdf:about="">
        <dc:format>image/svg+xml</dc:format>
        <dc:type
           rdf:resource="http://purl.org/dc/dcmitype/StillImage" />
        <dc:title />
      </cc:Work>
    </rdf:RDF>
  </metadata>
  <path
     style="fill:#000000;fill-opacity:1;stroke:none"
     d="M 9.782829,10.101538 36.37424,116.24035 c 54.322641,15.9992 103.17564,23.02977 103.45094,22.74737 0.29161,-0.29922 -11.92251,-48.538572 -24.31683,-103.63949 z M 221.99965,9.8747095 c 3.90966,16.3749045 5.15426,23.7456965 8.60156,38.1494545 10.89893,-8.763607 30.99242,-21.85331 43.3635,-27.434503 z m 2.21733,-0.2546565 -121.9309,28.453503 c 28.72653,40.705828 29.37437,102.354994 33.70404,101.731174 -0.14116,8.04633 25.4419,-0.76242 44.66975,-5.17279 9.04504,-35.79924 24.48981,-61.416316 51.31145,-88.607122 -2.87856,-12.347222 -4.32651,-21.998417 -7.75434,-36.404765 z M 36.253129,115.76342 10.955669,217.32825 c 37.48507,10.61602 70.045055,57.06623 107.953301,65.94455 8.00414,-24.72185 11.7205,-97.57641 18.2391,-136.77024 -25.2801,-7.86578 -44.958547,-13.95864 -100.894941,-30.73914 z M 180.01074,134.66259 53.241097,106.06686 c -7.24319,30.36361 69.733073,133.3207 63.873973,155.81242 29.12173,-7.10919 47.37615,-18.50553 79.14829,-24.87975 -11.15256,-26.59089 -20.52168,-74.30841 -16.25262,-102.33694 z m -168.652625,82.9842 10.59489,50.40314 c 51.414072,19.49679 55.244596,58.53016 82.816575,53.13322 L 128.52087,296.966 C 123.02585,274.1979 113.2213,237.58913 111.67584,252.85343 89.706518,224.64053 11.358115,217.64679 11.358115,217.64679 Z M 210.94699,329.85222 c 10.23076,-2.00506 29.10664,-4.58811 37.60666,-5.60349 -1.69001,-7.64695 1.33729,-21.70684 -0.95971,-30.37276 m -37.74528,-37.50149 c -4.74053,-6.48305 -10.71067,-14.99473 -14.33371,-21.95248 -27.92665,6.07731 -75.72311,17.12121 -77.06457,18.28365 -0.5666,0.491 0.74617,24.57003 6.42028,47.09784 13.87822,-12.79555 36.13783,-14.83544 46.70926,-7.73819 M 458.7931,275.7676 c -38.36412,31.86759 -60.39362,40.25272 -103.51441,47.06591 2.10502,10.58347 0.72356,37.31375 1.42064,39.4199 0.58865,1.77856 42.6955,-13.46278 114.17949,-31.54017 z m -437.30376,-9.74134 15.220896,61.11718 c 0,0 22.942744,5.76419 48.819353,12.00001 L 106.54192,320.07452 C 68.162228,306.46406 49.859361,272.21603 21.48934,266.02626 Z m 226.7498,27.74925 -0.1979,0.19789 -1.77455,32.34856 c 1.7906,-0.17515 26.12792,9.39389 42.88658,13.55079 10e-4,-6.58161 -0.0364,-20.76283 0.0486,-25.51679 -14.3671,-4.84781 -28.17218,-11.72066 -40.96302,-20.58045 z m 41.21074,21.16184 11.40168,20.00963 c 21.45776,5.32498 56.74814,30.21355 61.27305,30.26373 0,0 -4.30403,-37.53952 -5.07916,-42.80497 -16.41988,-0.13892 -50.02878,-2.83795 -67.59557,-7.46839 z m 181.62682,14.56247 c -58.21673,14.8402 -113.30303,27.72276 -113.47204,27.92742 -0.14914,0.18066 -8.00207,46.86052 -20.89715,100.6529 L 444.74297,432.39679 Z M 36.533511,326.69039 16.412114,407.16593 85.792478,339.3409 c -14.03395,-3.50486 -31.979886,-8.36744 -49.258967,-12.65051 z m 174.497889,2.72564 c 3.71898,6.95033 9.6106,32.79142 -11.36322,49.4795 10.98583,6.69521 25.62083,9.46887 35.30174,10.63701 5.33897,-19.15823 21.9565,-59.91545 23.3203,-70.81977 -9.54416,1.79906 -39.88647,9.61854 -47.25882,10.70326 z m 42.34085,-6.72003 c -0.12414,0.10501 -12.58947,37.33527 -19.42695,67.3592 43.38568,-6.85311 54.14825,-26.89441 55.4597,-51.56985 -17.80261,-4.33375 -35.66316,-16.83666 -36.03275,-15.78935 z m 34.28152,-8.01737 c -3.77083,44.06426 -14.5177,65.86973 -51.55607,71.65423 -3.76381,13.72527 -13.95338,31.2271 -18.4254,45.90648 l 119.05688,26.36334 c 12.74323,-53.43525 25.40534,-93.45852 25.18156,-93.69886 -0.33415,-0.35883 -49.81438,-44.22202 -74.25697,-50.22519 z m -87.47928,63.74211 c -35.49339,34.46956 -48.90192,46.61329 -81.97656,79.33979 L 222.59265,433.2939 c 4.06636,-14.28925 25.22057,-44.77074 26.19267,-48.70662 -16.06151,-0.54018 -37.31278,1.62895 -48.61083,-6.16654 z"
     id="path5801"
     inkscape:connector-curvature="0"
     sodipodi:nodetypes="ccccccccccccccccccccccccccccccccccccccccccccccccccccccsccccccccccccccccccccccccccccccccccc" />
  <g
     style="fill:#74a84f;fill-opacity:1;stroke:none;display:block"
     id="layer4"
     transform="matrix(0.08798405,0,0,0.08595212,3.1986333,450.92568)" />
  <g
     transform="matrix(0.27045701,0.09659359,-0.0958196,0.27264163,288.83877,68.486002)"
     id="g5"
     style="display:inline;fill:#000000">
    <path
       inkscape:connector-curvature="0"
       class="st0"
       d="m 450.5,350.3 c -37.4,-27.6 -63.4,-46.3 -75.7,-40 -15.4,7.7 -23.6,25.1 -39.3,55.7 -5.6,11.1 -18.3,32.1 -28,28.3 -12.3,-4.9 -48,-24.4 -95.6,-68.6 0,0 0,0 0,0 -4.3,-4 -8.8,-8.2 -13.3,-12.7 -53.1,-54.1 -75.8,-95.3 -81.1,-108.7 -3.8,-9.6 17.3,-22.3 28.3,-27.9 30.6,-15.7 48,-23.9 55.7,-39.3 6.2,-12.3 -12.4,-38.3 -40,-75.7 C 133.9,24 116.8,4.9 100.3,1.2 81.3,-3 73.4,8.4 35.9,41.2 -0.9,73.4 0,102.4 0,125.1 c 0,22.6 18,68.4 54.2,127.9 13.6,22.3 33.5,48.9 54.1,74.1 8.4,10.3 19.9,22.7 32.1,35.2 17.3,17.8 36.4,35.9 51.1,48 25.2,20.7 51.8,40.5 74.1,54.1 59.5,36.2 98.6,47.5 121.2,47.5 22.7,0 51.7,1 83.9,-36 32.8,-37.5 44.2,-45.4 40,-64.4 C 507,395 488,377.9 450.5,350.3 Z"
       id="path7"
       style="fill:#000000" />
    <path
       inkscape:connector-curvature="0"
       class="st0"
       d="m 417,94.9 c 30.7,30.7 48.7,71.1 52,113.1 l 42.7,0 C 504.7,96 416,7.2 304,0.1 l 0,42.7 c 42.2,3.4 82.3,21.4 113,52.1 z"
       id="path9"
       style="fill:#000000" />
    <path
       inkscape:connector-curvature="0"
       class="st0"
       d="m 304,90.4 0,44.4 c 34,11.8 61.2,39.2 73,73.2 l 44.4,0 C 407.2,151 361,104.7 304,90.4 Z"
       id="path11"
       style="fill:#000000" />
  </g>
</svg>
