<?xml version="1.0" encoding="UTF-8" standalone="no"?>
<!-- Svg Vector Icons : http://www.onlinewebfonts.com/icon -->

<svg
   xmlns:dc="http://purl.org/dc/elements/1.1/"
   xmlns:cc="http://creativecommons.org/ns#"
   xmlns:rdf="http://www.w3.org/1999/02/22-rdf-syntax-ns#"
   xmlns:svg="http://www.w3.org/2000/svg"
   xmlns="http://www.w3.org/2000/svg"
   xmlns:sodipodi="http://sodipodi.sourceforge.net/DTD/sodipodi-0.dtd"
   xmlns:inkscape="http://www.inkscape.org/namespaces/inkscape"
   version="1.1"
   x="0px"
   y="0px"
   viewBox="0 0 1000 1000"
   enable-background="new 0 0 1000 1000"
   xml:space="preserve"
   id="svg2"
   inkscape:version="0.91 r13725"
   sodipodi:docname="teou_distance_green.svg"
   inkscape:export-filename="/home/billerot/git/teou/atelier/teou_distance_green.png"
   inkscape:export-xdpi="17.280001"
   inkscape:export-ydpi="17.280001"><defs
     id="defs28" /><sodipodi:namedview
     pagecolor="#ffffff"
     bordercolor="#666666"
     borderopacity="1"
     objecttolerance="10"
     gridtolerance="10"
     guidetolerance="10"
     inkscape:pageopacity="0"
     inkscape:pageshadow="2"
     inkscape:window-width="1038"
     inkscape:window-height="858"
     id="namedview26"
     showgrid="false"
     inkscape:zoom="0.451"
     inkscape:cx="500"
     inkscape:cy="500"
     inkscape:window-x="877"
     inkscape:window-y="168"
     inkscape:window-maximized="0"
     inkscape:current-layer="g8" /><metadata
     id="metadata4"> Svg Vector Icons : http://www.onlinewebfonts.com/icon <rdf:RDF><cc:Work
     rdf:about=""><dc:format>image/svg+xml</dc:format><dc:type
       rdf:resource="http://purl.org/dc/dcmitype/StillImage" /><dc:title /></cc:Work></rdf:RDF></metadata><g
     id="g8"
     transform="matrix(0.1,0,0,-0.1,0,512)"><path
       inkscape:connector-curvature="0"
       id="path10"
       d="M 1247.6,5004.9 C 557.8,4859.3 51.9,4209.7 103.6,3535.2 136.2,3107.9 517.5,2318.4 1174.8,1312.4 1305.1,1111.2 1399,986.7 1429.6,973.2 c 61.3,-28.7 153.3,-28.7 205,-1.9 69,36.4 532.7,766.5 822,1295.3 316.2,572.9 477.1,992.6 492.5,1281.9 34.5,651.5 -375.6,1222.5 -1021.3,1425.6 -170.5,51.9 -502,67.2 -680.2,30.8 z m 544.2,-852.7 c 212.7,-105.4 343,-310.4 344.9,-548 1.9,-339.2 -272.1,-613.2 -613.2,-611.3 -329.6,1.9 -580.6,245.3 -597.8,576.8 -11.5,199.3 32.6,310.4 178.2,456 147.5,147.5 235.7,182 440.7,176.3 116.9,-3.8 176.3,-15.3 247.2,-49.8 z"
       style="fill:#999999" /><path
       inkscape:connector-curvature="0"
       id="path12"
       d="m 2245.9,1325.8 c -126.5,-70.9 -130.3,-287.4 -5.8,-354.5 17.3,-9.6 193.5,-26.8 392.8,-40.2 404.3,-26.8 431.1,-21.1 484.8,105.4 36.4,88.1 1.9,195.5 -78.6,241.4 -109.1,63.3 -701.2,99.7 -793.2,47.9 z"
       style="fill:#999999" /><path
       inkscape:connector-curvature="0"
       id="path14"
       d="m 3648.6,1071 c -72.8,-13.4 -139.9,-113.1 -139.9,-205 0,-90.1 34.5,-132.2 191.6,-231.9 147.5,-92 264.4,-199.3 364.1,-333.4 128.4,-174.4 206.9,-207 327.7,-143.7 70.9,34.5 118.8,139.9 101.6,214.6 -28.7,115 -241.4,367.9 -435,511.6 -212.8,161 -314.3,207 -410.1,187.8 z"
       style="fill:#999999" /><path
       inkscape:connector-curvature="0"
       id="path16"
       d="M 7896.7,938.8 C 7459.8,883.2 7082.3,706.9 6787.2,417.6 6363.7,-0.1 6160.6,-590.3 6256.4,-1136.4 6359.9,-1728.5 6883,-2891.6 7703.1,-4346 c 206.9,-369.8 260.6,-433.1 362.1,-433.1 126.5,0 191.6,92 641.9,919.8 572.9,1057.7 992.6,1996.7 1138.2,2554.3 69,262.5 72.8,590.2 9.6,845 -197.4,791.4 -891,1360.5 -1703.5,1398.8 -103.3,3.8 -218.2,3.8 -254.7,0 z M 8404.5,66.9 c 298.9,-111.1 521.2,-331.5 626.6,-624.7 28.7,-74.7 44.1,-172.4 49.8,-302.8 7.7,-168.6 1.9,-208.9 -42.2,-341.1 -57.5,-168.6 -115,-266.3 -228,-392.8 -389,-423.5 -1082.6,-423.5 -1481.2,-1.9 -298.9,316.2 -366,816.3 -157.1,1186.1 147.5,264.4 369.8,433 666.8,509.7 149.5,38.4 417.8,23.1 565.3,-32.5 z"
       style="fill:#008000" /><path
       inkscape:connector-curvature="0"
       id="path18"
       d="m 4455.3,-283.8 c -74.7,-74.7 -78.6,-113 -36.4,-314.2 15.3,-72.8 40.2,-260.6 59.4,-417.8 17.2,-166.7 42.1,-304.7 59.4,-329.6 15.3,-24.9 57.5,-57.5 95.8,-72.8 134.1,-57.5 274,40.3 274,191.6 0,109.2 -51.7,523.1 -90.1,720.5 -26.8,136 -42.1,174.4 -93.9,226.1 -86.2,86.3 -178.1,86.3 -268.2,-3.8 z"
       style="fill:#999999" /><path
       inkscape:connector-curvature="0"
       id="path20"
       d="m 4625.8,-1914.4 -69,-69 13.4,-185.8 c 19.2,-274 86.2,-712.8 118.8,-781.8 74.7,-157.1 308.5,-141.8 373.7,28.8 11.5,28.8 7.6,95.8 -11.5,195.4 -15.3,84.3 -42.1,279.8 -57.5,435 -32.6,320 -49.8,377.5 -126.5,415.8 -91.9,47.8 -166.6,36.3 -241.4,-38.4 z"
       style="fill:#999999" /><path
       inkscape:connector-curvature="0"
       id="path22"
       d="m 5047.4,-3449.3 c -74.7,-36.4 -126.4,-138 -109.2,-212.7 55.6,-226.1 572.9,-753.1 741.6,-753.1 67.1,0 159.1,46 185.9,93.9 21.1,42.1 24.9,155.2 7.7,203.1 -7.7,17.2 -74.7,76.6 -149.5,132.2 -149.5,111.1 -274,245.3 -381.3,415.8 -47.9,74.7 -88.1,115 -130.3,130.3 -78.7,26.9 -90.2,26.9 -164.9,-9.5 z"
       style="fill:#999999" /><path
       inkscape:connector-curvature="0"
       id="path24"
       d="m 6319.7,-4338.4 c -72.8,-57.5 -99.6,-153.3 -63.2,-235.7 15.3,-38.3 47.9,-80.5 72.8,-95.8 63.2,-42.2 394.7,-90.1 714.7,-103.5 l 275.9,-11.5 67.1,67.1 c 76.7,76.6 88.1,151.4 40.2,243.4 -38.3,74.7 -101.6,93.9 -354.5,107.3 -120.7,7.7 -306.6,24.9 -410.1,40.2 -249,34.5 -283.5,34.5 -342.9,-11.5 z"
       style="fill:#999999" /></g></svg>