<?xml version="1.0" encoding="UTF-8" standalone="no"?>
<svg
   xmlns:dc="http://purl.org/dc/elements/1.1/"
   xmlns:cc="http://creativecommons.org/ns#"
   xmlns:rdf="http://www.w3.org/1999/02/22-rdf-syntax-ns#"
   xmlns:svg="http://www.w3.org/2000/svg"
   xmlns="http://www.w3.org/2000/svg"
   xmlns:xlink="http://www.w3.org/1999/xlink"
   xmlns:sodipodi="http://sodipodi.sourceforge.net/DTD/sodipodi-0.dtd"
   xmlns:inkscape="http://www.inkscape.org/namespaces/inkscape"
   width="48"
   height="48"
   viewBox="0 0 48 48"
   id="svg2"
   version="1.1"
   inkscape:version="0.91 r13725"
   sodipodi:docname="teou_zzz.svg"
   inkscape:export-filename="/home/billerot/git/teou/atelier/teou_zzz.png"
   inkscape:export-xdpi="360"
   inkscape:export-ydpi="360">
  <metadata
     id="metadata14">
    <rdf:RDF>
      <cc:Work
         rdf:about="">
        <dc:format>image/svg+xml</dc:format>
        <dc:type
           rdf:resource="http://purl.org/dc/dcmitype/StillImage" />
        <dc:title></dc:title>
      </cc:Work>
    </rdf:RDF>
  </metadata>
  <sodipodi:namedview
     pagecolor="#ffffff"
     bordercolor="#666666"
     borderopacity="1"
     objecttolerance="10"
     gridtolerance="10"
     guidetolerance="10"
     inkscape:pageopacity="0"
     inkscape:pageshadow="2"
     inkscape:window-width="1855"
     inkscape:window-height="1176"
     id="namedview12"
     showgrid="true"
     inkscape:zoom="20.979167"
     inkscape:cx="13.203575"
     inkscape:cy="24"
     inkscape:window-x="65"
     inkscape:window-y="24"
     inkscape:window-maximized="1"
     inkscape:current-layer="layer1">
    <inkscape:grid
       type="xygrid"
       id="grid5686" />
  </sodipodi:namedview>
  <defs
     id="defs4">
    <path
       id="a"
       d="M0 0h48v48H0V0z" />
  </defs>
  <clipPath
     id="b">
    <use
       xlink:href="#a"
       overflow="visible"
       id="use8" />
  </clipPath>
  <g
     inkscape:groupmode="layer"
     id="layer2"
     inkscape:label="Layer 2"
     style="display:inline">
    <g
       id="g5614"
       transform="translate(0.07149876,-0.02383274)">
      <path
         id="path5604"
         d="M 41,6 C 40.89,6 40.79,6.01 40.69,6.05 L 30,10.2 18,6 6.73,9.8 C 6.31,9.94 6,10.3 6,10.76 L 6,41 c 0,0.55 0.45,1 1,1 0.11,0 0.21,-0.01 0.31,-0.05 L 18,37.8 30,42 41.28,38.21 C 41.7,38.06 42,37.7 42,37.24 L 42,7 C 42,6.45 41.55,6 41,6 Z"
         inkscape:connector-curvature="0"
         sodipodi:nodetypes="sccccsssccccsss" />
      <path
         id="path5606"
         d="M 0,0 48,0 48,48 0,48 Z"
         inkscape:connector-curvature="0"
         style="fill:none" />
    </g>
    <path
       style="fill:#ffffff;fill-opacity:1"
       inkscape:connector-curvature="0"
       d="m 33.091017,17.331772 c -0.35917,-0.552133 -1.121327,-1.317834 -1.695089,-1.595882 -0.519239,-0.252878 -1.04378,-0.43883 -1.569923,-0.62911 -0.623413,-0.229206 -1.260458,-0.464711 -1.889991,-0.659668 -0.959797,-0.293608 -1.921982,-0.563201 -2.881517,-0.866261 -1.168223,-0.368306 -2.342869,-0.75393 -3.512698,-1.126566 -2.248815,-0.72366 -5.282446,-2.5177039 -5.744028,1.018756 -0.09779,0.731069 -0.16363,1.74123 0.06345,2.515842 0.371953,1.276857 1.238686,1.81694 2.281124,2.241994 1.063009,0.429766 2.133183,0.787487 3.205481,1.130645 0.357531,0.111263 0.715041,0.222471 1.067484,0.330171 0.208665,0.06524 0.542118,0.111538 0.592808,0.400461 0.04075,0.211364 -0.133562,0.401204 -0.23713,0.528011 -0.187372,0.22566 -0.393211,0.432029 -0.588882,0.645485 -0.09075,0.100431 -0.186583,0.197315 -0.277359,0.29774 -0.582494,0.601788 -1.170073,1.200034 -1.75526,1.774266 -0.470123,0.468283 -0.926873,0.952306 -1.366787,1.451279 -0.186352,0.187858 -0.37641,0.385965 -0.56622,0.574617 -0.631374,0.622278 -1.131535,1.303937 -1.680569,2.006092 -0.07499,0.09216 -0.143312,0.192174 -0.204701,0.290623 -0.48597,0.730074 -0.974804,1.564076 -0.783845,2.647334 0.244341,1.399736 1.307217,2.022 2.479039,2.572569 0.419028,0.195858 0.835877,0.345237 1.25859,0.469828 l 0.04081,0.0187 c 1.415495,0.59848 2.938767,0.980002 4.430307,1.448538 1.169828,0.372636 2.342869,0.753929 3.510833,1.131685 2.252288,0.722873 5.282445,2.517706 5.744027,-1.018756 0.09779,-0.731072 0.167097,-1.742022 -0.06159,-2.520965 -0.368486,-1.277637 -1.238682,-1.816934 -2.279514,-2.237658 -1.066481,-0.428979 -2.134789,-0.791819 -3.20709,-1.134978 -0.234345,-0.07352 -0.467065,-0.142659 -0.704887,-0.215405 -0.160868,-0.04798 -0.442981,-0.07772 -0.582789,-0.200889 -0.323179,-0.292729 0.09365,-0.579901 0.224707,-0.703574 0.431968,-0.398586 0.854039,-0.813704 1.265959,-1.235901 0.429796,-0.445038 0.879647,-0.866465 1.269602,-1.368171 0.221584,-0.214663 0.448245,-0.425758 0.663142,-0.648278 0.467171,-0.48639 0.961077,-0.941298 1.371566,-1.499306 1.029924,-1.43577 3.848984,-3.18416 2.12084,-5.833455 z"
       id="path5729" />
  </g>
  <g
     inkscape:groupmode="layer"
     id="layer1"
     inkscape:label="Layer 3"
     style="display:inline">
    <path
       style="display:inline;opacity:1;fill:#ffffff;fill-opacity:1;fill-rule:nonzero;stroke:none;stroke-width:1;stroke-miterlimit:4;stroke-dasharray:none;stroke-opacity:1"
       d="m 30.439719,36.962249 c 0.883666,0.161877 1.593736,-0.0169 1.973985,-0.497006 0.355214,-0.448495 0.534417,-1.037561 0.629567,-2.06949 0.122825,-1.33206 -0.07807,-2.27408 -0.644445,-3.021848 -0.42959,-0.567176 -1.066762,-0.939707 -2.554936,-1.493774 -0.956278,-0.356036 -2.589043,-0.897264 -3.159056,-1.047163 -0.251122,-0.06604 -0.465396,-0.153691 -0.536246,-0.219351 -0.241369,-0.223693 -0.212291,-0.265769 1.061737,-1.536337 1.724986,-1.720302 3.306709,-3.383642 3.837806,-4.035836 0.255977,-0.314343 0.704645,-0.828281 0.997038,-1.142084 1.192714,-1.280042 1.604997,-2.08451 1.551967,-3.028258 -0.04244,-0.755298 -0.378576,-1.447278 -1.058182,-2.178423 -0.479099,-0.515432 -0.903218,-0.827352 -1.45574,-1.070631 -0.842681,-0.371039 -2.63778,-0.995433 -4.28997,-1.492193 -2.28501,-0.687028 -5.20997,-1.630838 -6.442117,-2.078707 -1.518231,-0.551857 -1.842819,-0.632347 -2.56682,-0.636447 -0.528194,-0.003 -0.62404,0.0094 -0.84435,0.108996 -0.46707,0.211199 -0.83969,0.728908 -1.013354,1.407931 -0.207331,0.810667 -0.242835,2.240566 -0.07291,2.936495 0.246219,1.008387 0.954398,1.766145 2.113073,2.261005 0.800407,0.341847 2.673863,0.992601 4.269431,1.483008 0.817059,0.251128 0.95008,0.433063 0.648986,0.887633 -0.07833,0.118261 -0.759366,0.851521 -1.513406,1.629466 -3.038295,3.134616 -3.621158,3.755397 -4.191163,4.463814 -1.251429,1.555309 -1.636622,2.318178 -1.636622,3.24131 0,1.537898 1.003916,2.518438 3.503476,3.421894 1.621678,0.586149 2.107968,0.74958 3.31281,1.11336 1.909328,0.576486 5.006002,1.580752 6.077458,1.970949 1.102837,0.401624 1.537471,0.536597 2.001986,0.621687 z"
       id="path5754"
       inkscape:connector-curvature="0" />
  </g>
</svg>
